{
	"asset":{
		"generator":"Khronos glTF Blender I/O v3.6.27",
		"version":"2.0"
	},
	"extensionsUsed":[
		"KHR_materials_specular",
		"KHR_materials_ior"
	],
	"scene":0,
	"scenes":[
		{
			"name":"Scene",
			"nodes":[
				0,
				1,
				2,
				3,
				4,
				5,
				6
			]
		}
	],
	"nodes":[
		{
			"name":"geo.1",
			"rotation":[
				0.7071068286895752,
				0,
				0,
				0.7071068286895752
			]
		},
		{
			"mesh":0,
			"name":"QX_Case QX_machine_QX_machine_exp_01_QX_Case1",
			"rotation":[
				0.7071068286895752,
				0,
				0,
				0.7071068286895752
			],
			"translation":[
				0,
				-0.9867767095565796,
				0
			]
		},
		{
			"mesh":1,
			"name":"QX_InsertParts QX_machine_QX_machine_exp_01_QX_InsertParts1",
			"rotation":[
				0.7071068286895752,
				0,
				0,
				0.7071068286895752
			]
		},
		{
			"mesh":2,
			"name":"QX_Internal QX_machine_QX_machine_exp_01_QX_Internal1",
			"rotation":[
				0.7071068286895752,
				0,
				0,
				0.7071068286895752
			]
		},
		{
			"name":"RootNode.0",
			"rotation":[
				0.7071068286895752,
				0,
				0,
				0.7071068286895752
			]
		},
		{
			"name":"skeletal.3",
			"rotation":[
				0.7071068286895752,
				0,
				0,
				0.7071068286895752
			]
		},
		{
			"name":"TRex.2",
			"rotation":[
				0.7071068286895752,
				0,
				0,
				0.7071068286895752
			]
		}
	],
	"materials":[
		{
			"doubleSided":true,
			"extensions":{
				"KHR_materials_specular":{
					"specularColorFactor":[
						0,
						0,
						0
					]
				},
				"KHR_materials_ior":{
					"ior":0
				}
			},
			"name":"QX_machine_CaseMat1",
			"pbrMetallicRoughness":{
				"baseColorFactor":[
					0.1293451339006424,
					0.11664337664842606,
					0.20352715253829956,
					1
				],
				"roughnessFactor":0.05494503676891327
			}
		},
		{
			"alphaMode":"BLEND",
			"doubleSided":true,
			"extensions":{
				"KHR_materials_specular":{
					"specularColorFactor":[
						0,
						0,
						0
					]
				},
				"KHR_materials_ior":{
					"ior":0
				}
			},
			"name":"QX_machine_InternalsMat1",
			"pbrMetallicRoughness":{
				"baseColorFactor":[
					0.19018171727657318,
					0.166244775056839,
					0.238243967294693,
					1
				],
				"roughnessFactor":0.10989008843898773
			}
		},
		{
			"doubleSided":true,
			"extensions":{
				"KHR_materials_specular":{
					"specularColorFactor":[
						0,
						0,
						0
					]
				},
				"KHR_materials_ior":{
					"ior":0
				}
			},
			"name":"QX_machine_InternalsMat1.001",
			"pbrMetallicRoughness":{
				"baseColorFactor":[
					0.2204906940460205,
					0.12255260348320007,
					0.11812382936477661,
					1
				],
				"roughnessFactor":0.25641024112701416
			}
		}
	],
	"meshes":[
		{
			"name":"QX_Case QX_machine_QX_machine_exp_01_QX_Case1",
			"primitives":[
				{
					"attributes":{
						"POSITION":0,
						"NORMAL":1,
						"TEXCOORD_0":2
					},
					"indices":3,
					"material":0
				}
			]
		},
		{
			"name":"QX_InsertParts QX_machine_QX_machine_exp_01_QX_InsertParts1",
			"primitives":[
				{
					"attributes":{
						"POSITION":4,
						"NORMAL":5,
						"TEXCOORD_0":6
					},
					"indices":7,
					"material":1
				}
			]
		},
		{
			"name":"QX_Internal QX_machine_QX_machine_exp_01_QX_Internal1",
			"primitives":[
				{
					"attributes":{
						"POSITION":8,
						"NORMAL":9,
						"TEXCOORD_0":10
					},
					"indices":11,
					"material":2
				}
			]
		}
	],
	"accessors":[
		{
			"bufferView":0,
			"componentType":5126,
			"count":10501,
			"max":[
				0.8300009965896606,
				0.8546000123023987,
				2.265000104904175
			],
			"min":[
				-0.8300009965896606,
				-0.8546000123023987,
				-0.04892599955201149
			],
			"type":"VEC3"
		},
		{
			"bufferView":1,
			"componentType":5126,
			"count":10501,
			"type":"VEC3"
		},
		{
			"bufferView":2,
			"componentType":5126,
			"count":10501,
			"type":"VEC2"
		},
		{
			"bufferView":3,
			"componentType":5123,
			"count":19782,
			"type":"SCALAR"
		},
		{
			"bufferView":4,
			"componentType":5126,
			"count":3224,
			"max":[
				0.3815000057220459,
				0.3375000059604645,
				0.5209659934043884
			],
			"min":[
				-0.3815000057220459,
				-0.3375000059604645,
				-0.023000000044703484
			],
			"type":"VEC3"
		},
		{
			"bufferView":5,
			"componentType":5126,
			"count":3224,
			"type":"VEC3"
		},
		{
			"bufferView":6,
			"componentType":5126,
			"count":3224,
			"type":"VEC2"
		},
		{
			"bufferView":7,
			"componentType":5123,
			"count":7872,
			"type":"SCALAR"
		},
		{
			"bufferView":8,
			"componentType":5126,
			"count":139160,
			"max":[
				0.6162130236625671,
				0.6667389869689941,
				0.9543409943580627
			],
			"min":[
				-0.6162139773368835,
				-0.6667389869689941,
				-0.48373401165008545
			],
			"type":"VEC3"
		},
		{
			"bufferView":9,
			"componentType":5126,
			"count":139160,
			"type":"VEC3"
		},
		{
			"bufferView":10,
			"componentType":5126,
			"count":139160,
			"type":"VEC2"
		},
		{
			"bufferView":11,
			"componentType":5125,
			"count":307722,
			"type":"SCALAR"
		}
	],
	"bufferViews":[
		{
			"buffer":0,
			"byteLength":126012,
			"byteOffset":0,
			"target":34962
		},
		{
			"buffer":0,
			"byteLength":126012,
			"byteOffset":126012,
			"target":34962
		},
		{
			"buffer":0,
			"byteLength":84008,
			"byteOffset":252024,
			"target":34962
		},
		{
			"buffer":0,
			"byteLength":39564,
			"byteOffset":336032,
			"target":34963
		},
		{
			"buffer":0,
			"byteLength":38688,
			"byteOffset":375596,
			"target":34962
		},
		{
			"buffer":0,
			"byteLength":38688,
			"byteOffset":414284,
			"target":34962
		},
		{
			"buffer":0,
			"byteLength":25792,
			"byteOffset":452972,
			"target":34962
		},
		{
			"buffer":0,
			"byteLength":15744,
			"byteOffset":478764,
			"target":34963
		},
		{
			"buffer":0,
			"byteLength":1669920,
			"byteOffset":494508,
			"target":34962
		},
		{
			"buffer":0,
			"byteLength":1669920,
			"byteOffset":2164428,
			"target":34962
		},
		{
			"buffer":0,
			"byteLength":1113280,
			"byteOffset":3834348,
			"target":34962
		},
		{
			"buffer":0,
			"byteLength":1230888,
			"byteOffset":4947628,
			"target":34963
		}
	],
	"buffers":[
		{
			"byteLength":6178516,
			"uri":"Test.bin"
		}
	]
}
