{
	"asset":
	{
		"version": "2.0",
		"generator": "Unreal Engine 5.2.1"
	},
	"scene": 0,
	"accessors": [
		{
			"bufferView": 0,
			"count": 4032,
			"type": "SCALAR",
			"componentType": 5126,
			"min": [ 0 ],
			"max": [ 134.366669 ]
		},
		{
			"bufferView": 1,
			"count": 4032,
			"type": "VEC3",
			"componentType": 5126
		},
		{
			"bufferView": 2,
			"count": 4032,
			"type": "VEC4",
			"componentType": 5126
		},
		{
			"bufferView": 3,
			"count": 4032,
			"type": "VEC3",
			"componentType": 5126
		},
		{
			"bufferView": 4,
			"count": 1850,
			"type": "SCALAR",
			"componentType": 5126,
			"min": [ 0 ],
			"max": [ 77.0416641 ]
		},
		{
			"bufferView": 5,
			"count": 1850,
			"type": "VEC3",
			"componentType": 5126
		},
		{
			"bufferView": 6,
			"count": 1850,
			"type": "VEC4",
			"componentType": 5126
		},
		{
			"bufferView": 7,
			"count": 1850,
			"type": "VEC3",
			"componentType": 5126
		},
		{
			"bufferView": 8,
			"count": 1850,
			"type": "VEC3",
			"componentType": 5126
		},
		{
			"bufferView": 9,
			"count": 1850,
			"type": "VEC4",
			"componentType": 5126
		},
		{
			"bufferView": 10,
			"count": 1850,
			"type": "VEC3",
			"componentType": 5126
		},
		{
			"bufferView": 11,
			"count": 1850,
			"type": "VEC3",
			"componentType": 5126
		},
		{
			"bufferView": 12,
			"count": 1850,
			"type": "VEC4",
			"componentType": 5126
		},
		{
			"bufferView": 13,
			"count": 1850,
			"type": "VEC3",
			"componentType": 5126
		},
		{
			"bufferView": 14,
			"count": 1850,
			"type": "VEC3",
			"componentType": 5126
		},
		{
			"bufferView": 15,
			"count": 1850,
			"type": "VEC4",
			"componentType": 5126
		},
		{
			"bufferView": 16,
			"count": 1850,
			"type": "VEC3",
			"componentType": 5126
		},
		{
			"bufferView": 17,
			"count": 1850,
			"type": "VEC3",
			"componentType": 5126
		},
		{
			"bufferView": 18,
			"count": 1850,
			"type": "VEC4",
			"componentType": 5126
		},
		{
			"bufferView": 19,
			"count": 1850,
			"type": "VEC3",
			"componentType": 5126
		},
		{
			"bufferView": 20,
			"count": 1850,
			"type": "VEC3",
			"componentType": 5126
		},
		{
			"bufferView": 21,
			"count": 1850,
			"type": "VEC4",
			"componentType": 5126
		},
		{
			"bufferView": 22,
			"count": 1850,
			"type": "VEC3",
			"componentType": 5126
		},
		{
			"bufferView": 23,
			"count": 1850,
			"type": "VEC3",
			"componentType": 5126
		},
		{
			"bufferView": 24,
			"count": 1850,
			"type": "VEC4",
			"componentType": 5126
		},
		{
			"bufferView": 25,
			"count": 1850,
			"type": "VEC3",
			"componentType": 5126
		},
		{
			"bufferView": 26,
			"count": 1850,
			"type": "VEC3",
			"componentType": 5126
		},
		{
			"bufferView": 27,
			"count": 1850,
			"type": "VEC4",
			"componentType": 5126
		},
		{
			"bufferView": 28,
			"count": 1850,
			"type": "VEC3",
			"componentType": 5126
		},
		{
			"bufferView": 29,
			"count": 1440,
			"type": "SCALAR",
			"componentType": 5123
		},
		{
			"bufferView": 30,
			"count": 482,
			"type": "VEC3",
			"componentType": 5126,
			"min": [ -20, -0.25, -20 ],
			"max": [ 20, 0.25, 20 ]
		},
		{
			"bufferView": 31,
			"count": 482,
			"type": "VEC3",
			"componentType": 5126
		},
		{
			"bufferView": 32,
			"count": 482,
			"type": "VEC4",
			"componentType": 5126
		},
		{
			"bufferView": 33,
			"count": 482,
			"type": "VEC2",
			"componentType": 5126
		},
		{
			"bufferView": 34,
			"count": 482,
			"type": "VEC2",
			"componentType": 5126
		},
		{
			"bufferView": 35,
			"count": 10800,
			"type": "SCALAR",
			"componentType": 5123
		},
		{
			"bufferView": 36,
			"count": 2642,
			"type": "VEC3",
			"componentType": 5126,
			"min": [ -20, -0.25, -20 ],
			"max": [ 20, 0.5, 20 ]
		},
		{
			"bufferView": 37,
			"count": 2642,
			"type": "VEC3",
			"componentType": 5126
		},
		{
			"bufferView": 38,
			"count": 2642,
			"type": "VEC4",
			"componentType": 5126
		},
		{
			"bufferView": 39,
			"count": 2642,
			"type": "VEC2",
			"componentType": 5126
		},
		{
			"bufferView": 40,
			"count": 2642,
			"type": "VEC2",
			"componentType": 5126
		},
		{
			"bufferView": 41,
			"count": 2880,
			"type": "SCALAR",
			"componentType": 5123
		},
		{
			"bufferView": 42,
			"count": 559,
			"type": "VEC3",
			"componentType": 5126,
			"min": [ -0.5, -0.5, -0.49999994 ],
			"max": [ 0.5, 0.5, 0.5 ]
		},
		{
			"bufferView": 43,
			"count": 559,
			"type": "VEC3",
			"componentType": 5126
		},
		{
			"bufferView": 44,
			"count": 559,
			"type": "VEC4",
			"componentType": 5126
		},
		{
			"bufferView": 45,
			"count": 559,
			"type": "VEC2",
			"componentType": 5126
		},
		{
			"bufferView": 46,
			"count": 559,
			"type": "VEC2",
			"componentType": 5126
		},
		{
			"bufferView": 47,
			"count": 852,
			"type": "SCALAR",
			"componentType": 5121
		},
		{
			"bufferView": 48,
			"count": 198,
			"type": "VEC3",
			"componentType": 5126,
			"min": [ -0.5, -0.5, -0.5 ],
			"max": [ 0.5, 0.499999851, 0.5 ]
		},
		{
			"bufferView": 49,
			"count": 198,
			"type": "VEC3",
			"componentType": 5126
		},
		{
			"bufferView": 50,
			"count": 198,
			"type": "VEC4",
			"componentType": 5126
		},
		{
			"bufferView": 51,
			"count": 198,
			"type": "VEC2",
			"componentType": 5126
		},
		{
			"bufferView": 52,
			"count": 198,
			"type": "VEC2",
			"componentType": 5126
		}
	],
	"animations": [
		{
			"name": "NewLevelSequence_0",
			"channels": [
				{
					"sampler": 0,
					"target":
					{
						"node": 14,
						"path": "translation"
					}
				},
				{
					"sampler": 1,
					"target":
					{
						"node": 14,
						"path": "rotation"
					}
				},
				{
					"sampler": 2,
					"target":
					{
						"node": 14,
						"path": "scale"
					}
				}
			],
			"samplers": [
				{
					"input": 0,
					"output": 1
				},
				{
					"input": 0,
					"output": 2
				},
				{
					"input": 0,
					"output": 3
				}
			]
		},
		{
			"name": "Updated-1-17_1",
			"channels": [
				{
					"sampler": 0,
					"target":
					{
						"node": 31,
						"path": "translation"
					}
				},
				{
					"sampler": 1,
					"target":
					{
						"node": 31,
						"path": "rotation"
					}
				},
				{
					"sampler": 2,
					"target":
					{
						"node": 31,
						"path": "scale"
					}
				},
				{
					"sampler": 3,
					"target":
					{
						"node": 34,
						"path": "translation"
					}
				},
				{
					"sampler": 4,
					"target":
					{
						"node": 34,
						"path": "rotation"
					}
				},
				{
					"sampler": 5,
					"target":
					{
						"node": 34,
						"path": "scale"
					}
				},
				{
					"sampler": 6,
					"target":
					{
						"node": 35,
						"path": "translation"
					}
				},
				{
					"sampler": 7,
					"target":
					{
						"node": 35,
						"path": "rotation"
					}
				},
				{
					"sampler": 8,
					"target":
					{
						"node": 35,
						"path": "scale"
					}
				},
				{
					"sampler": 9,
					"target":
					{
						"node": 28,
						"path": "translation"
					}
				},
				{
					"sampler": 10,
					"target":
					{
						"node": 28,
						"path": "rotation"
					}
				},
				{
					"sampler": 11,
					"target":
					{
						"node": 28,
						"path": "scale"
					}
				},
				{
					"sampler": 12,
					"target":
					{
						"node": 32,
						"path": "translation"
					}
				},
				{
					"sampler": 13,
					"target":
					{
						"node": 32,
						"path": "rotation"
					}
				},
				{
					"sampler": 14,
					"target":
					{
						"node": 32,
						"path": "scale"
					}
				},
				{
					"sampler": 15,
					"target":
					{
						"node": 29,
						"path": "translation"
					}
				},
				{
					"sampler": 16,
					"target":
					{
						"node": 29,
						"path": "rotation"
					}
				},
				{
					"sampler": 17,
					"target":
					{
						"node": 29,
						"path": "scale"
					}
				},
				{
					"sampler": 18,
					"target":
					{
						"node": 33,
						"path": "translation"
					}
				},
				{
					"sampler": 19,
					"target":
					{
						"node": 33,
						"path": "rotation"
					}
				},
				{
					"sampler": 20,
					"target":
					{
						"node": 33,
						"path": "scale"
					}
				},
				{
					"sampler": 21,
					"target":
					{
						"node": 30,
						"path": "translation"
					}
				},
				{
					"sampler": 22,
					"target":
					{
						"node": 30,
						"path": "rotation"
					}
				},
				{
					"sampler": 23,
					"target":
					{
						"node": 30,
						"path": "scale"
					}
				}
			],
			"samplers": [
				{
					"input": 4,
					"output": 5
				},
				{
					"input": 4,
					"output": 6
				},
				{
					"input": 4,
					"output": 7
				},
				{
					"input": 4,
					"output": 8
				},
				{
					"input": 4,
					"output": 9
				},
				{
					"input": 4,
					"output": 10
				},
				{
					"input": 4,
					"output": 11
				},
				{
					"input": 4,
					"output": 12
				},
				{
					"input": 4,
					"output": 13
				},
				{
					"input": 4,
					"output": 14
				},
				{
					"input": 4,
					"output": 15
				},
				{
					"input": 4,
					"output": 16
				},
				{
					"input": 4,
					"output": 17
				},
				{
					"input": 4,
					"output": 18
				},
				{
					"input": 4,
					"output": 19
				},
				{
					"input": 4,
					"output": 20
				},
				{
					"input": 4,
					"output": 21
				},
				{
					"input": 4,
					"output": 22
				},
				{
					"input": 4,
					"output": 23
				},
				{
					"input": 4,
					"output": 24
				},
				{
					"input": 4,
					"output": 25
				},
				{
					"input": 4,
					"output": 26
				},
				{
					"input": 4,
					"output": 27
				},
				{
					"input": 4,
					"output": 28
				}
			]
		}
	],
	"buffers": [
		{
			"uri": "Updated-1-17.bin",
			"byteLength": 1025236
		}
	],
	"bufferViews": [
		{
			"buffer": 0,
			"byteLength": 16128
		},
		{
			"buffer": 0,
			"byteLength": 48384,
			"byteOffset": 16128
		},
		{
			"buffer": 0,
			"byteLength": 64512,
			"byteOffset": 64512
		},
		{
			"buffer": 0,
			"byteLength": 48384,
			"byteOffset": 129024
		},
		{
			"buffer": 0,
			"byteLength": 7400,
			"byteOffset": 177408
		},
		{
			"buffer": 0,
			"byteLength": 22200,
			"byteOffset": 184808
		},
		{
			"buffer": 0,
			"byteLength": 29600,
			"byteOffset": 207008
		},
		{
			"buffer": 0,
			"byteLength": 22200,
			"byteOffset": 236608
		},
		{
			"buffer": 0,
			"byteLength": 22200,
			"byteOffset": 258808
		},
		{
			"buffer": 0,
			"byteLength": 29600,
			"byteOffset": 281008
		},
		{
			"buffer": 0,
			"byteLength": 22200,
			"byteOffset": 310608
		},
		{
			"buffer": 0,
			"byteLength": 22200,
			"byteOffset": 332808
		},
		{
			"buffer": 0,
			"byteLength": 29600,
			"byteOffset": 355008
		},
		{
			"buffer": 0,
			"byteLength": 22200,
			"byteOffset": 384608
		},
		{
			"buffer": 0,
			"byteLength": 22200,
			"byteOffset": 406808
		},
		{
			"buffer": 0,
			"byteLength": 29600,
			"byteOffset": 429008
		},
		{
			"buffer": 0,
			"byteLength": 22200,
			"byteOffset": 458608
		},
		{
			"buffer": 0,
			"byteLength": 22200,
			"byteOffset": 480808
		},
		{
			"buffer": 0,
			"byteLength": 29600,
			"byteOffset": 503008
		},
		{
			"buffer": 0,
			"byteLength": 22200,
			"byteOffset": 532608
		},
		{
			"buffer": 0,
			"byteLength": 22200,
			"byteOffset": 554808
		},
		{
			"buffer": 0,
			"byteLength": 29600,
			"byteOffset": 577008
		},
		{
			"buffer": 0,
			"byteLength": 22200,
			"byteOffset": 606608
		},
		{
			"buffer": 0,
			"byteLength": 22200,
			"byteOffset": 628808
		},
		{
			"buffer": 0,
			"byteLength": 29600,
			"byteOffset": 651008
		},
		{
			"buffer": 0,
			"byteLength": 22200,
			"byteOffset": 680608
		},
		{
			"buffer": 0,
			"byteLength": 22200,
			"byteOffset": 702808
		},
		{
			"buffer": 0,
			"byteLength": 29600,
			"byteOffset": 725008
		},
		{
			"buffer": 0,
			"byteLength": 22200,
			"byteOffset": 754608
		},
		{
			"buffer": 0,
			"byteLength": 2880,
			"byteOffset": 776808,
			"target": 34963
		},
		{
			"buffer": 0,
			"byteLength": 5784,
			"byteOffset": 779688,
			"target": 34962
		},
		{
			"buffer": 0,
			"byteLength": 5784,
			"byteOffset": 785472,
			"target": 34962
		},
		{
			"buffer": 0,
			"byteLength": 7712,
			"byteOffset": 791256,
			"target": 34962
		},
		{
			"buffer": 0,
			"byteLength": 3856,
			"byteOffset": 798968,
			"target": 34962
		},
		{
			"buffer": 0,
			"byteLength": 3856,
			"byteOffset": 802824,
			"target": 34962
		},
		{
			"buffer": 0,
			"byteLength": 21600,
			"byteOffset": 806680,
			"target": 34963
		},
		{
			"buffer": 0,
			"byteLength": 31704,
			"byteOffset": 828280,
			"target": 34962
		},
		{
			"buffer": 0,
			"byteLength": 31704,
			"byteOffset": 859984,
			"target": 34962
		},
		{
			"buffer": 0,
			"byteLength": 42272,
			"byteOffset": 891688,
			"target": 34962
		},
		{
			"buffer": 0,
			"byteLength": 21136,
			"byteOffset": 933960,
			"target": 34962
		},
		{
			"buffer": 0,
			"byteLength": 21136,
			"byteOffset": 955096,
			"target": 34962
		},
		{
			"buffer": 0,
			"byteLength": 5760,
			"byteOffset": 976232,
			"target": 34963
		},
		{
			"buffer": 0,
			"byteLength": 6708,
			"byteOffset": 981992,
			"target": 34962
		},
		{
			"buffer": 0,
			"byteLength": 6708,
			"byteOffset": 988700,
			"target": 34962
		},
		{
			"buffer": 0,
			"byteLength": 8944,
			"byteOffset": 995408,
			"target": 34962
		},
		{
			"buffer": 0,
			"byteLength": 4472,
			"byteOffset": 1004352,
			"target": 34962
		},
		{
			"buffer": 0,
			"byteLength": 4472,
			"byteOffset": 1008824,
			"target": 34962
		},
		{
			"buffer": 0,
			"byteLength": 852,
			"byteOffset": 1013296,
			"target": 34963
		},
		{
			"buffer": 0,
			"byteLength": 2376,
			"byteOffset": 1014148,
			"target": 34962
		},
		{
			"buffer": 0,
			"byteLength": 2376,
			"byteOffset": 1016524,
			"target": 34962
		},
		{
			"buffer": 0,
			"byteLength": 3168,
			"byteOffset": 1018900,
			"target": 34962
		},
		{
			"buffer": 0,
			"byteLength": 1584,
			"byteOffset": 1022068,
			"target": 34962
		},
		{
			"buffer": 0,
			"byteLength": 1584,
			"byteOffset": 1023652,
			"target": 34962
		}
	],
	"cameras": [
		{
			"name": "CameraComponent",
			"type": "perspective",
			"perspective":
			{
				"aspectRatio": 1.77777779,
				"yfov": 0.377315938,
				"znear": 0.099999994
			}
		},
		{
			"name": "CameraComponent",
			"type": "perspective",
			"perspective":
			{
				"aspectRatio": 1.77777779,
				"yfov": 0.377315938,
				"znear": 0.099999994
			}
		},
		{
			"name": "CameraComponent",
			"type": "perspective",
			"perspective":
			{
				"aspectRatio": 1.77777779,
				"yfov": 0.377315938,
				"znear": 0.099999994
			}
		},
		{
			"name": "CameraComponent",
			"type": "perspective",
			"perspective":
			{
				"aspectRatio": 1.765306,
				"yfov": 0.673349619,
				"znear": 0.099999994
			}
		}
	],
	"materials": [
		{
			"name": "MI_Floor",
			"pbrMetallicRoughness":
			{
				"baseColorFactor": [ 0.354175001, 0.442324013, 0.519096971, 1 ],
				"metallicFactor": 0,
				"roughnessFactor": 0.100000001
			},
			"doubleSided": true
		},
		{
			"name": "MI_Chrome",
			"pbrMetallicRoughness":
			{
				"baseColorFactor": [ 0.869791985, 0.939387023, 1, 1 ],
				"roughnessFactor": 0.177778006
			},
			"doubleSided": true
		},
		{
			"name": "BasicAsset03",
			"pbrMetallicRoughness":
			{
				"baseColorFactor": [ 0.100000001, 1, 0, 1 ],
				"metallicFactor": 0,
				"roughnessFactor": 0.200000003
			}
		},
		{
			"name": "BasicAsset01",
			"pbrMetallicRoughness":
			{
				"baseColorFactor": [ 1, 0.0500000007, 0, 1 ],
				"metallicFactor": 0,
				"roughnessFactor": 0.800000012
			}
		},
		{
			"name": "BasicAsset02",
			"pbrMetallicRoughness":
			{
				"baseColorFactor": [ 0.912999988, 0.921000004, 0.925000012, 1 ],
				"roughnessFactor": 0.400000006
			}
		},
		{
			"name": "BasicShapeMaterial",
			"pbrMetallicRoughness":
			{
				"baseColorFactor": [ 0.899999976, 0.899999976, 0.899999976, 1 ],
				"metallicFactor": 0,
				"roughnessFactor": 0.640699983
			}
		}
	],
	"meshes": [
		{
			"name": "SM_Floor_Disk",
			"primitives": [
				{
					"attributes":
					{
						"POSITION": 30,
						"NORMAL": 31,
						"TANGENT": 32,
						"TEXCOORD_0": 33,
						"TEXCOORD_1": 34
					},
					"indices": 29,
					"material": 0
				},
				{
					"attributes":
					{
						"POSITION": 36,
						"NORMAL": 37,
						"TANGENT": 38,
						"TEXCOORD_0": 39,
						"TEXCOORD_1": 40
					},
					"indices": 35,
					"material": 1
				}
			]
		},
		{
			"name": "Sphere",
			"primitives": [
				{
					"attributes":
					{
						"POSITION": 42,
						"NORMAL": 43,
						"TANGENT": 44,
						"TEXCOORD_0": 45,
						"TEXCOORD_1": 46
					},
					"indices": 41,
					"material": 2
				}
			]
		},
		{
			"name": "Sphere",
			"primitives": [
				{
					"attributes":
					{
						"POSITION": 42,
						"NORMAL": 43,
						"TANGENT": 44,
						"TEXCOORD_0": 45,
						"TEXCOORD_1": 46
					},
					"indices": 41,
					"material": 3
				}
			]
		},
		{
			"name": "Sphere",
			"primitives": [
				{
					"attributes":
					{
						"POSITION": 42,
						"NORMAL": 43,
						"TANGENT": 44,
						"TEXCOORD_0": 45,
						"TEXCOORD_1": 46
					},
					"indices": 41,
					"material": 4
				}
			]
		},
		{
			"name": "Cone",
			"primitives": [
				{
					"attributes":
					{
						"POSITION": 48,
						"NORMAL": 49,
						"TANGENT": 50,
						"TEXCOORD_0": 51,
						"TEXCOORD_1": 52
					},
					"indices": 47,
					"material": 5
				}
			]
		}
	],
	"nodes": [
		{
			"name": "Brush1",
			"translation": [ -0.899999976, 0.199999988, 1.10000002 ]
		},
		{
			"name": "InstancedFoliageActor"
		},
		{
			"name": "PlayerStart",
			"translation": [ -2.89999986, 1.19999993, 0.099999994 ]
		},
		{
			"name": "CineCameraActor",
			"translation": [ -24.5054722, 3.97612214, -0.0832526013 ],
			"rotation": [ 2.15938053e-06, -5.87304785e-05, -0.031405583, 0.999506712 ],
			"children": [ 4 ]
		},
		{
			"name": "CameraComponent",
			"children": [ 5 ]
		},
		{
			"name": "CameraComponent",
			"rotation": [ -0, -0.707106829, 0, 0.707106769 ],
			"camera": 0
		},
		{
			"name": "SphereReflectionCapture",
			"translation": [ 0, 0.399999976, 0 ],
			"children": [ 7, 8 ]
		},
		{
			"name": "DrawRadius0"
		},
		{
			"name": "DrawRadius1"
		},
		{
			"name": "PostProcessVolume",
			"translation": [ 0.699999988, -0.099999994, 0 ],
			"scale": [ 10, 10, 10 ]
		},
		{
			"name": "LightmassImportanceVolume",
			"scale": [ 8, 12, 12.75 ]
		},
		{
			"name": "SM_Floor_Disk",
			"translation": [ 0, -0.199999988, 0 ],
			"scale": [ 0.75, 0.75, 0.75 ],
			"mesh": 0
		},
		{
			"name": "SkyLight",
			"translation": [ 0, 6.89999962, 0 ]
		},
		{
			"name": "BP_LiveLinkXR_DataHandler",
			"translation": [ -3.69999981, 0.599999964, -4.69999981 ]
		},
		{
			"name": "CineCameraActor3",
			"translation": [ 0.299999982, 0.799999952, 10 ],
			"rotation": [ 0, 0.707106829, -0, 0.707106829 ],
			"children": [ 15 ]
		},
		{
			"name": "CameraComponent",
			"children": [ 16 ]
		},
		{
			"name": "CameraComponent",
			"rotation": [ -0, -0.707106829, 0, 0.707106769 ],
			"camera": 1
		},
		{
			"name": "CineCameraActor5",
			"translation": [ -0.199999988, 0.799999952, 7.5 ],
			"rotation": [ 0, 0.707106829, -0, 0.707106829 ],
			"children": [ 18 ]
		},
		{
			"name": "CameraComponent",
			"children": [ 19 ]
		},
		{
			"name": "CameraComponent",
			"rotation": [ -0, -0.707106829, 0, 0.707106769 ],
			"camera": 2
		},
		{
			"name": "Plexus_rig_02",
			"translation": [ 1.89999998, 1.10000002, 0.599999964 ]
		},
		{
			"name": "NS_LightOrbs",
			"translation": [ 2.20000005, 0, 1.29999995 ]
		},
		{
			"name": "SpotLight",
			"translation": [ -1.42108544e-16, 4.0999999, 3.89999986 ],
			"rotation": [ 0.183012694, 0.183012694, -0.683012724, 0.683012724 ],
			"children": [ 23 ]
		},
		{
			"name": "SpotLight",
			"rotation": [ -0, -0.707106829, 0, 0.707106769 ],
			"extensions":
			{
				"KHR_lights_punctual":
				{
					"light": 0
				}
			}
		},
		{
			"name": "BP_Empty",
			"translation": [ 0.299999982, 0.199999988, 2.5 ],
			"children": [ 25, 28, 29, 30, 31, 32, 33, 34 ]
		},
		{
			"name": "Arrow"
		},
		{
			"name": "NewLevelSequence",
			"translation": [ 2.20000005, 0, 3.39999986 ]
		},
		{
			"name": "DefaultPhysicsVolume0"
		},
		{
			"name": "TM_Head",
			"translation": [ 0.359487593, 1.87016523, -1.32630599 ],
			"rotation": [ 0.52003628, 0.759917378, -0.38760677, -0.0429984033 ],
			"scale": [ 0.200000003, 0.200000003, 0.200000003 ],
			"mesh": 1
		},
		{
			"name": "TM_LeftHand",
			"translation": [ 0.659723282, 1.15409744, -0.424449146 ],
			"rotation": [ -0.690406084, 0.177371994, 0.230489001, 0.662384748 ],
			"scale": [ 0.200000003, 0.200000003, 0.200000003 ],
			"mesh": 2
		},
		{
			"name": "TM_RightHand",
			"translation": [ 0.428924322, 1.0580343, -0.98955822 ],
			"rotation": [ 0.570675969, -0.275080532, 0.371921122, 0.678479433 ],
			"scale": [ 0.200000003, 0.200000003, 0.200000003 ],
			"mesh": 3
		},
		{
			"name": "TM_Body",
			"translation": [ 0.40745604, 1.550529, -0.161363825 ],
			"rotation": [ -0.173782706, 0.849520147, 0.485234112, 0.112529792 ],
			"scale": [ 0.200000003, 0.200000003, 0.200000003 ],
			"mesh": 2
		},
		{
			"name": "TM_LeftAnkle",
			"translation": [ 0.305071086, 0.524612486, -0.587499857 ],
			"rotation": [ 0.492016435, 0.63826859, -0.480335921, 0.346136689 ],
			"scale": [ 0.200000003, 0.200000003, 0.200000003 ],
			"mesh": 3
		},
		{
			"name": "TM_RightAnkle",
			"translation": [ 0.380465448, 0.4025594, -1.31317317 ],
			"rotation": [ -0.0972665995, -0.726278186, -0.427912205, 0.529103339 ],
			"scale": [ 0.200000003, 0.200000003, 0.200000003 ],
			"mesh": 1
		},
		{
			"name": "TM_Camera",
			"translation": [ 1.3668431, 1.72018886, -2.76727605 ],
			"rotation": [ 0.0657655671, -0.856425285, -0.028787924, 0.511255264 ],
			"scale": [ 0.200000003, 0.200000003, 0.200000003 ],
			"mesh": 4,
			"children": [ 35 ]
		},
		{
			"name": "CineCameraActor1",
			"translation": [ -6.44475193e-08, -0.169999525, 1.579523e-07 ],
			"rotation": [ 9.31322575e-10, 2.98023224e-08, 0.0871557444, 0.99619478 ],
			"scale": [ 5, 5, 5 ],
			"children": [ 36 ]
		},
		{
			"name": "CameraComponent",
			"children": [ 37 ]
		},
		{
			"name": "CameraComponent",
			"rotation": [ -0, -0.707106829, 0, 0.707106769 ],
			"camera": 3
		},
		{
			"name": "AbstractNavData-Default"
		}
	],
	"scenes": [
		{
			"name": "Main",
			"nodes": [ 0, 1, 2, 3, 6, 9, 10, 11, 12, 13, 14, 17, 20, 21, 22, 24, 26, 27, 38 ]
		}
	],
	"extensions":
	{
		"KHR_lights_punctual":
		{
			"lights": [
				{
					"name": "SpotLight",
					"type": "spot",
					"intensity": 35.6692314,
					"range": 163.839996,
					"spot":
					{
						"outerConeAngle": 0.819420457
					}
				}
			]
		}
	},
	"extensionsUsed": [
		"KHR_lights_punctual"
	]
}