{
	"asset":{
		"generator":"Khronos glTF Blender I/O v3.6.27",
		"version":"2.0"
	},
	"scene":0,
	"scenes":[
		{
			"name":"Scene",
			"nodes":[
				4
			]
		}
	],
	"nodes":[
		{
			"mesh":0,
			"name":"S_Main.001"
		},
		{
			"children":[
				0
			],
			"name":"S_Main"
		},
		{
			"mesh":1,
			"name":"S_SmallBits.001"
		},
		{
			"children":[
				2
			],
			"name":"S_SmallBits"
		},
		{
			"children":[
				1,
				3
			],
			"name":"RootNode",
			"scale":[
				0.009999999776482582,
				0.009999999776482582,
				0.009999999776482582
			]
		}
	],
	"materials":[
		{
			"name":"LargeDetails_1001",
			"normalTexture":{
				"index":0
			},
			"occlusionTexture":{
				"index":1
			},
			"pbrMetallicRoughness":{
				"baseColorTexture":{
					"index":2
				},
				"metallicRoughnessTexture":{
					"index":1
				}
			}
		},
		{
			"name":"SmallDetails_1001",
			"normalTexture":{
				"index":3
			},
			"occlusionTexture":{
				"index":4
			},
			"pbrMetallicRoughness":{
				"baseColorTexture":{
					"index":5
				},
				"metallicRoughnessTexture":{
					"index":4
				}
			}
		}
	],
	"meshes":[
		{
			"name":"S_Main",
			"primitives":[
				{
					"attributes":{
						"POSITION":0,
						"NORMAL":1,
						"TEXCOORD_0":2
					},
					"indices":3,
					"material":0
				}
			]
		},
		{
			"name":"S_SmallBits",
			"primitives":[
				{
					"attributes":{
						"POSITION":4,
						"NORMAL":5,
						"TEXCOORD_0":6
					},
					"indices":7,
					"material":1
				}
			]
		}
	],
	"textures":[
		{
			"sampler":0,
			"source":0
		},
		{
			"sampler":0,
			"source":1
		},
		{
			"sampler":0,
			"source":2
		},
		{
			"sampler":0,
			"source":3
		},
		{
			"sampler":0,
			"source":4
		},
		{
			"sampler":0,
			"source":5
		}
	],
	"images":[
		{
			"mimeType":"image/png",
			"name":"Image_2",
			"uri":"Image_2.png"
		},
		{
			"mimeType":"image/png",
			"name":"Image_1",
			"uri":"Image_1.png"
		},
		{
			"mimeType":"image/png",
			"name":"Image_0",
			"uri":"Image_0.png"
		},
		{
			"mimeType":"image/png",
			"name":"Image_5",
			"uri":"Image_5.png"
		},
		{
			"mimeType":"image/png",
			"name":"Image_4",
			"uri":"Image_4.png"
		},
		{
			"mimeType":"image/png",
			"name":"Image_3",
			"uri":"Image_3.png"
		}
	],
	"accessors":[
		{
			"bufferView":0,
			"componentType":5126,
			"count":26107,
			"max":[
				29.38092613220215,
				23.480701446533203,
				29.381343841552734
			],
			"min":[
				-29.380939483642578,
				-94.78201293945312,
				-29.381011962890625
			],
			"type":"VEC3"
		},
		{
			"bufferView":1,
			"componentType":5126,
			"count":26107,
			"type":"VEC3"
		},
		{
			"bufferView":2,
			"componentType":5126,
			"count":26107,
			"type":"VEC2"
		},
		{
			"bufferView":3,
			"componentType":5123,
			"count":82467,
			"type":"SCALAR"
		},
		{
			"bufferView":4,
			"componentType":5126,
			"count":37366,
			"max":[
				20.360767364501953,
				4.302318572998047,
				18.820701599121094
			],
			"min":[
				-20.353614807128906,
				-94.17106628417969,
				-20.85201644897461
			],
			"type":"VEC3"
		},
		{
			"bufferView":5,
			"componentType":5126,
			"count":37366,
			"type":"VEC3"
		},
		{
			"bufferView":6,
			"componentType":5126,
			"count":37366,
			"type":"VEC2"
		},
		{
			"bufferView":7,
			"componentType":5123,
			"count":90102,
			"type":"SCALAR"
		}
	],
	"bufferViews":[
		{
			"buffer":0,
			"byteLength":313284,
			"byteOffset":0,
			"target":34962
		},
		{
			"buffer":0,
			"byteLength":313284,
			"byteOffset":313284,
			"target":34962
		},
		{
			"buffer":0,
			"byteLength":208856,
			"byteOffset":626568,
			"target":34962
		},
		{
			"buffer":0,
			"byteLength":164934,
			"byteOffset":835424,
			"target":34963
		},
		{
			"buffer":0,
			"byteLength":448392,
			"byteOffset":1000360,
			"target":34962
		},
		{
			"buffer":0,
			"byteLength":448392,
			"byteOffset":1448752,
			"target":34962
		},
		{
			"buffer":0,
			"byteLength":298928,
			"byteOffset":1897144,
			"target":34962
		},
		{
			"buffer":0,
			"byteLength":180204,
			"byteOffset":2196072,
			"target":34963
		}
	],
	"samplers":[
		{
			"magFilter":9729,
			"minFilter":9987
		}
	],
	"buffers":[
		{
			"byteLength":2376276,
			"uri":"SModel_01.bin"
		}
	]
}
