{
	"asset":{
		"generator":"Khronos glTF Blender I/O v3.6.27",
		"version":"2.0"
	},
	"scene":0,
	"scenes":[
		{
			"name":"Scene",
			"nodes":[
				0,
				1,
				2
			]
		}
	],
	"nodes":[
		{
			"mesh":0,
			"name":"QX_machine_exp_01_QX_Internal",
			"scale":[
				100,
				100,
				100
			],
			"translation":[
				0,
				0.8535157442092896,
				0
			]
		},
		{
			"mesh":1,
			"name":"QX_machine_exp_01_QX_Case",
			"scale":[
				100,
				100,
				100
			],
			"translation":[
				0,
				37.05747604370117,
				0
			]
		},
		{
			"mesh":2,
			"name":"QX_machine_exp_01_QX_InsertParts",
			"scale":[
				100,
				100,
				100
			],
			"translation":[
				0,
				0.8398360013961792,
				0
			]
		}
	],
	"materials":[
		{
			"name":"InternalsMat",
			"normalTexture":{
				"index":0
			},
			"occlusionTexture":{
				"index":1
			},
			"pbrMetallicRoughness":{
				"baseColorTexture":{
					"index":2
				},
				"metallicRoughnessTexture":{
					"index":1
				}
			}
		},
		{
			"name":"CaseMat",
			"normalTexture":{
				"index":3
			},
			"occlusionTexture":{
				"index":4
			},
			"pbrMetallicRoughness":{
				"baseColorTexture":{
					"index":5
				},
				"metallicRoughnessTexture":{
					"index":4
				}
			}
		}
	],
	"meshes":[
		{
			"name":"QX_machine_exp_01_QX_Internal",
			"primitives":[
				{
					"attributes":{
						"POSITION":0,
						"NORMAL":1,
						"TEXCOORD_0":2,
						"TEXCOORD_1":3
					},
					"indices":4,
					"material":0
				}
			]
		},
		{
			"name":"QX_machine_exp_01_QX_Case",
			"primitives":[
				{
					"attributes":{
						"POSITION":5,
						"NORMAL":6,
						"TEXCOORD_0":7,
						"TEXCOORD_1":8
					},
					"indices":9,
					"material":1
				}
			]
		},
		{
			"name":"QX_machine_exp_01_QX_InsertParts",
			"primitives":[
				{
					"attributes":{
						"POSITION":10,
						"NORMAL":11,
						"TEXCOORD_0":12,
						"TEXCOORD_1":13
					},
					"indices":14,
					"material":0
				}
			]
		}
	],
	"textures":[
		{
			"sampler":0,
			"source":0
		},
		{
			"sampler":0,
			"source":1
		},
		{
			"sampler":0,
			"source":2
		},
		{
			"sampler":0,
			"source":3
		},
		{
			"sampler":0,
			"source":4
		},
		{
			"sampler":0,
			"source":5
		}
	],
	"images":[
		{
			"mimeType":"image/png",
			"name":"QX_Machine_Exp_01_InternalsMat_Normal",
			"uri":"QX_Machine_Exp_01_InternalsMat_Normal.png"
		},
		{
			"mimeType":"image/png",
			"name":"QX_Machine_Exp_01_InternalsMat_OcclusionRoughnessMetallic_Linea-InternalsMat_MetallicRoughness",
			"uri":"QX_Machine_Exp_01_InternalsMat_OcclusionRoughnessMetallic_Linea-InternalsMat_MetallicRoughness.png"
		},
		{
			"mimeType":"image/png",
			"name":"QX_Machine_Exp_01_InternalsMat_BaseColor",
			"uri":"QX_Machine_Exp_01_InternalsMat_BaseColor.png"
		},
		{
			"mimeType":"image/png",
			"name":"QX_Machine_Exp_01_CaseMat_Normal",
			"uri":"QX_Machine_Exp_01_CaseMat_Normal.png"
		},
		{
			"mimeType":"image/png",
			"name":"QX_Machine_Exp_01_CaseMat_OcclusionRoughnessMetallic_Linear-CaseMat_MetallicRoughness",
			"uri":"QX_Machine_Exp_01_CaseMat_OcclusionRoughnessMetallic_Linear-CaseMat_MetallicRoughness.png"
		},
		{
			"mimeType":"image/png",
			"name":"QX_Machine_Exp_01_CaseMat_BaseColor",
			"uri":"QX_Machine_Exp_01_CaseMat_BaseColor.png"
		}
	],
	"accessors":[
		{
			"bufferView":0,
			"componentType":5126,
			"count":139653,
			"max":[
				0.6162134408950806,
				0.7190372943878174,
				0.6667386293411255
			],
			"min":[
				-0.6162134408950806,
				-0.7190374135971069,
				-0.6667386293411255
			],
			"type":"VEC3"
		},
		{
			"bufferView":1,
			"componentType":5126,
			"count":139653,
			"type":"VEC3"
		},
		{
			"bufferView":2,
			"componentType":5126,
			"count":139653,
			"type":"VEC2"
		},
		{
			"bufferView":3,
			"componentType":5126,
			"count":139653,
			"type":"VEC2"
		},
		{
			"bufferView":4,
			"componentType":5125,
			"count":307722,
			"type":"SCALAR"
		},
		{
			"bufferView":5,
			"componentType":5126,
			"count":10604,
			"max":[
				0.8300005197525024,
				2.323559522628784,
				0.8545999526977539
			],
			"min":[
				-0.8300005197525024,
				0.009633779525756836,
				-0.8545999526977539
			],
			"type":"VEC3"
		},
		{
			"bufferView":6,
			"componentType":5126,
			"count":10604,
			"type":"VEC3"
		},
		{
			"bufferView":7,
			"componentType":5126,
			"count":10604,
			"type":"VEC2"
		},
		{
			"bufferView":8,
			"componentType":5126,
			"count":10604,
			"type":"VEC2"
		},
		{
			"bufferView":9,
			"componentType":5123,
			"count":19782,
			"type":"SCALAR"
		},
		{
			"bufferView":10,
			"componentType":5126,
			"count":3161,
			"max":[
				0.3815000057220459,
				0.27198290824890137,
				0.3375000059604645
			],
			"min":[
				-0.3815000057220459,
				-0.27198290824890137,
				-0.3375000059604645
			],
			"type":"VEC3"
		},
		{
			"bufferView":11,
			"componentType":5126,
			"count":3161,
			"type":"VEC3"
		},
		{
			"bufferView":12,
			"componentType":5126,
			"count":3161,
			"type":"VEC2"
		},
		{
			"bufferView":13,
			"componentType":5126,
			"count":3161,
			"type":"VEC2"
		},
		{
			"bufferView":14,
			"componentType":5123,
			"count":7872,
			"type":"SCALAR"
		}
	],
	"bufferViews":[
		{
			"buffer":0,
			"byteLength":1675836,
			"byteOffset":0,
			"target":34962
		},
		{
			"buffer":0,
			"byteLength":1675836,
			"byteOffset":1675836,
			"target":34962
		},
		{
			"buffer":0,
			"byteLength":1117224,
			"byteOffset":3351672,
			"target":34962
		},
		{
			"buffer":0,
			"byteLength":1117224,
			"byteOffset":4468896,
			"target":34962
		},
		{
			"buffer":0,
			"byteLength":1230888,
			"byteOffset":5586120,
			"target":34963
		},
		{
			"buffer":0,
			"byteLength":127248,
			"byteOffset":6817008,
			"target":34962
		},
		{
			"buffer":0,
			"byteLength":127248,
			"byteOffset":6944256,
			"target":34962
		},
		{
			"buffer":0,
			"byteLength":84832,
			"byteOffset":7071504,
			"target":34962
		},
		{
			"buffer":0,
			"byteLength":84832,
			"byteOffset":7156336,
			"target":34962
		},
		{
			"buffer":0,
			"byteLength":39564,
			"byteOffset":7241168,
			"target":34963
		},
		{
			"buffer":0,
			"byteLength":37932,
			"byteOffset":7280732,
			"target":34962
		},
		{
			"buffer":0,
			"byteLength":37932,
			"byteOffset":7318664,
			"target":34962
		},
		{
			"buffer":0,
			"byteLength":25288,
			"byteOffset":7356596,
			"target":34962
		},
		{
			"buffer":0,
			"byteLength":25288,
			"byteOffset":7381884,
			"target":34962
		},
		{
			"buffer":0,
			"byteLength":15744,
			"byteOffset":7407172,
			"target":34963
		}
	],
	"samplers":[
		{
			"magFilter":9729,
			"minFilter":9987
		}
	],
	"buffers":[
		{
			"byteLength":7422916,
			"uri":"QX_textured.bin"
		}
	]
}
